<svg width="20" height="20" viewBox="0 0 20 20" fill="none" xmlns="http://www.w3.org/2000/svg">
<path d="M5.55533 18.9733H14.4446C16.1775 18.9733 17.0396 18.0944 17.0396 16.3533V8.75293C17.0396 7.67293 16.9225 7.20436 16.2528 6.51793L11.6321 1.82221C10.9964 1.169 10.4771 1.02686 9.5314 1.02686H5.55533C3.83104 1.02686 2.96033 1.914 2.96033 3.65543V16.3533C2.96033 18.1026 3.83104 18.9733 5.55533 18.9733ZM5.62211 17.6258C4.75997 17.6258 4.30783 17.1651 4.30783 16.3283V3.68043C4.30783 2.85186 4.75997 2.37436 5.63068 2.37436H9.34711V7.23793C9.34711 8.29257 9.88283 8.8115 10.9207 8.8115H15.6921V16.3283C15.6921 17.1651 15.2482 17.6258 14.3778 17.6258H5.62211ZM11.0714 7.54721C10.745 7.54721 10.6107 7.41364 10.6107 7.07864V2.634L15.4321 7.54757L11.0714 7.54721Z" fill="black"/>
</svg>
