<svg width="20" height="20" viewBox="0 0 20 20" fill="none" xmlns="http://www.w3.org/2000/svg">
<path d="M3.33329 17.4998C2.87496 17.4998 2.48274 17.3368 2.15663 17.0107C1.83051 16.6846 1.66718 16.2921 1.66663 15.8332V6.6665C1.66663 6.20817 1.82996 5.81595 2.15663 5.48984C2.48329 5.16373 2.87551 5.00039 3.33329 4.99984H6.66663V3.33317C6.66663 2.87484 6.82996 2.48262 7.15663 2.1565C7.48329 1.83039 7.87551 1.66706 8.33329 1.6665H11.6666C12.125 1.6665 12.5175 1.82984 12.8441 2.1565C13.1708 2.48317 13.3338 2.87539 13.3333 3.33317V4.99984H16.6666C17.125 4.99984 17.5175 5.16317 17.8441 5.48984C18.1708 5.8165 18.3338 6.20873 18.3333 6.6665V15.8332C18.3333 16.2915 18.1702 16.684 17.8441 17.0107C17.518 17.3373 17.1255 17.5004 16.6666 17.4998H3.33329ZM3.33329 15.8332H16.6666V6.6665H3.33329V15.8332ZM8.33329 4.99984H11.6666V3.33317H8.33329V4.99984Z" fill="black"/>
</svg>
