<svg width="20" height="20" viewBox="0 0 20 20" fill="none" xmlns="http://www.w3.org/2000/svg">
<path d="M11.25 3.75C11.25 3.41848 11.3817 3.10054 11.6161 2.86612C11.8505 2.6317 12.1685 2.5 12.5 2.5H16.25C16.5815 2.5 16.8995 2.6317 17.1339 2.86612C17.3683 3.10054 17.5 3.41848 17.5 3.75V14.375C17.5 15.2038 17.1708 15.9987 16.5847 16.5847C15.9987 17.1708 15.2038 17.5 14.375 17.5H2.5C2.16848 17.5 1.85054 17.3683 1.61612 17.1339C1.3817 16.8995 1.25 16.5815 1.25 16.25V12.5C1.25 12.1685 1.3817 11.8505 1.61612 11.6161C1.85054 11.3817 2.16848 11.25 2.5 11.25H6.25V8.75C6.25 8.41848 6.3817 8.10054 6.61612 7.86612C6.85054 7.6317 7.16848 7.5 7.5 7.5H11.25V3.75ZM16.25 3.75H12.5V7.5C12.5 7.83152 12.3683 8.14946 12.1339 8.38388C11.8995 8.6183 11.5815 8.75 11.25 8.75H7.5V11.25C7.5 11.5815 7.3683 11.8995 7.13388 12.1339C6.89946 12.3683 6.58152 12.5 6.25 12.5H2.5V16.25H14.375C14.8723 16.25 15.3492 16.0525 15.7008 15.7008C16.0525 15.3492 16.25 14.8723 16.25 14.375V3.75Z" fill="black"/>
</svg>
